<svg width="736" height="740" viewBox="0 0 736 740" fill="none" xmlns="http://www.w3.org/2000/svg">
<g clip-path="url(#clip0_629_68)" filter="url(#filter0_d_629_68)">
<path d="M623.801 38.7995C629.401 44.3995 633.001 50.7995 635.401 58.3995C637.401 65.9995 637.801 72.7995 635.801 79.5995C635.401 80.3995 634.601 82.3995 633.401 85.1995C632.601 86.7995 632.201 87.9995 632.601 89.1995C634.601 89.5995 636.601 88.7995 639.001 86.7995C644.201 81.5995 646.201 73.1995 645.401 61.1995C644.601 49.1995 640.201 39.5995 632.201 31.5995C631.001 30.3995 629.001 29.5995 626.601 28.7995C624.201 28.3995 623.001 27.9995 622.601 27.5995C619.401 24.3995 620.201 20.7995 624.601 16.3995C625.001 15.9995 627.801 14.7995 632.601 12.3995C632.601 11.9995 632.201 11.9995 632.201 11.5995C631.401 10.7995 630.601 10.7995 629.001 10.7995C625.001 10.3995 621.401 11.5995 618.601 14.7995C617.801 15.5995 616.601 17.1995 615.401 18.7995C614.201 20.3995 613.401 21.5995 613.001 21.9995C611.801 23.1995 610.601 23.1995 609.401 21.9995C606.201 18.7995 607.401 14.3995 613.001 8.79946C617.001 4.79946 622.601 3.19946 629.401 4.39946C636.601 5.59946 642.601 8.39946 647.801 13.5995C655.801 21.5995 659.401 33.1995 658.601 49.1995C657.801 66.7995 651.801 82.3995 640.601 95.9995C643.001 96.3995 644.601 96.3995 645.401 95.5995C649.401 91.5995 653.401 85.9995 657.401 78.7995C662.201 69.5995 665.401 60.7995 667.001 52.3995C668.201 44.7995 668.201 38.3995 666.601 32.3995C666.201 31.1995 665.001 28.3995 663.401 23.9995C661.801 20.3995 661.001 17.5995 661.001 15.5995C661.001 13.9995 661.401 11.5995 663.001 7.59946C664.201 4.39946 665.001 2.79946 665.401 2.39946C667.401 0.399461 670.601 0.79946 673.801 4.39946C677.801 8.39946 680.601 15.1995 682.201 24.3995C683.001 20.7995 683.001 15.9995 681.801 9.59946C681.001 4.39946 681.001 1.19946 681.801 0.79946C682.601 -0.000539541 683.001 -0.000539541 683.801 0.39946C683.801 0.39946 684.201 0.79946 684.601 1.99946C691.401 14.7995 688.201 33.1995 675.801 56.3995C677.801 55.1995 679.001 53.9995 679.801 53.1995C681.401 51.5995 685.001 45.5995 689.801 35.5995C694.601 25.5995 699.001 18.7995 702.601 15.5995C705.001 13.1995 707.001 11.9995 709.001 12.3995C709.801 12.7995 711.001 13.1995 711.801 13.1995C713.001 11.9995 714.601 10.7995 716.201 9.59946C718.601 7.99946 721.001 8.39946 723.801 11.1995C725.001 12.3995 725.801 14.3995 725.801 16.7995C725.801 19.1995 725.001 21.1995 723.801 22.3995C723.801 22.3995 723.401 22.7995 722.601 23.5995C722.201 23.9995 722.201 24.3995 722.201 25.1995L724.201 25.9995C725.001 27.5995 723.401 30.3995 719.401 34.7995C716.601 37.5995 705.401 45.5995 686.201 58.7995C685.801 59.9995 685.401 60.7995 685.401 61.1995C715.801 46.7995 733.801 42.3995 739.401 48.3995C740.601 49.5995 741.401 50.7995 741.801 52.3995C742.201 53.9995 742.201 54.7995 741.801 55.1995C741.401 55.5995 740.201 55.9995 738.601 55.9995C731.801 52.7995 726.601 51.5995 723.001 51.9995L721.801 53.5995C724.601 54.7995 727.401 55.5995 730.201 56.7995C732.601 57.5995 733.801 57.9995 733.801 57.9995C735.401 59.5995 736.201 61.1995 736.201 63.5995C736.201 65.9995 735.401 67.5995 734.201 69.1995C730.601 72.7995 727.001 73.9995 723.401 73.5995C720.201 72.7995 717.001 71.5995 713.801 70.7995C708.601 69.9995 701.401 70.3995 692.201 72.7995C681.401 75.1995 671.401 79.1995 663.001 84.3995L657.801 89.5995C657.001 90.3995 656.201 91.5995 655.801 93.9995L657.401 94.7995C671.801 85.9995 685.001 81.1995 696.601 80.7995C708.601 80.3995 717.801 83.5995 725.001 90.7995C729.801 95.5995 732.201 100.799 732.201 106.799C732.201 112.799 729.801 117.999 725.401 122.399C721.001 126.799 717.401 127.199 714.201 123.999L713.801 123.599C715.001 122.399 716.201 121.199 717.801 120.399C719.401 119.599 720.201 118.799 720.201 118.799C723.401 115.599 725.001 111.999 725.401 107.999C725.801 103.999 724.601 100.799 721.801 97.9995C721.001 97.1995 720.601 97.1995 720.601 96.7995C721.801 104.399 720.201 110.399 715.801 114.799L714.601 115.999C711.801 117.599 709.401 117.999 708.201 116.399C707.801 115.999 707.001 114.799 706.201 111.999C705.001 109.599 703.801 107.599 702.201 105.999C701.801 105.599 701.001 105.199 700.201 104.399C699.401 103.599 699.001 102.799 698.601 101.599C698.201 100.399 697.801 99.5995 697.401 99.5995C694.201 96.3995 688.201 94.7995 679.801 95.1995C670.201 95.5995 661.801 98.7995 654.201 104.799L655.401 107.199C664.601 103.999 673.001 103.599 680.201 105.999C686.201 107.999 692.601 112.399 699.801 119.999C706.201 126.399 709.001 133.999 709.001 142.399C709.001 151.199 706.201 158.399 701.001 163.599C696.601 167.999 690.601 169.999 683.001 169.599C677.001 169.199 673.001 167.999 670.601 165.599C669.801 164.799 669.401 163.999 669.401 162.799L670.201 161.999C671.401 160.799 672.601 160.799 675.001 161.599C684.601 165.199 691.401 164.799 695.401 160.799C699.001 157.199 700.601 153.999 699.801 151.199C693.001 154.399 687.801 155.999 684.601 156.399C680.601 157.199 677.001 155.999 674.601 153.599C670.601 149.599 671.801 144.399 678.201 138.399C685.801 130.799 685.401 123.199 677.801 115.199C675.801 113.199 671.801 111.599 666.601 110.799C661.401 109.999 657.801 110.799 656.201 112.399C655.401 113.199 655.001 115.199 655.401 117.999C655.801 122.399 656.201 125.599 656.201 127.199C655.801 137.599 651.801 145.999 645.401 152.799C641.401 156.799 637.001 159.599 632.201 161.199C627.401 162.799 623.801 162.799 621.801 161.199C620.601 160.399 618.201 159.599 615.001 159.199C611.801 158.799 609.801 158.399 609.401 157.599C607.801 155.999 607.801 154.399 609.401 152.799C610.201 151.999 611.401 151.199 613.401 149.599C615.401 147.999 617.001 146.799 618.201 145.599C621.401 142.399 623.001 138.399 623.001 133.599C623.001 129.599 621.801 126.399 619.801 124.399C615.401 119.999 611.001 117.599 606.201 117.199C601.401 116.799 597.401 118.399 593.801 121.599C593.001 122.399 592.201 123.599 591.001 124.799C590.201 125.999 589.401 126.799 589.001 127.199C587.001 129.199 585.001 129.199 583.001 127.199C581.401 125.599 581.001 121.599 582.201 115.599C583.401 108.399 587.001 102.399 591.801 97.1995C600.601 88.3995 613.401 84.7995 629.801 86.7995C630.201 83.1995 630.601 79.5995 631.001 75.9995C631.401 72.3995 631.001 69.1995 629.801 65.9995C628.601 63.9995 627.401 61.9995 625.401 60.3995C623.001 57.9995 619.801 56.7995 615.401 56.3995C611.401 56.3995 607.801 57.9995 604.201 61.1995C603.001 62.3995 601.801 63.5995 600.201 65.1995C599.001 66.7995 598.201 67.5995 598.201 67.5995C597.001 68.7995 595.001 68.7995 592.201 67.9995C589.401 67.1995 587.001 65.5995 584.601 63.1995C579.401 57.9995 580.201 49.9995 587.401 39.5995L585.401 40.3995C584.201 41.1995 583.801 41.5995 583.401 41.5995C578.601 46.3995 576.601 51.5995 576.601 57.1995C576.601 62.7995 579.001 67.9995 583.001 71.9995C583.801 72.7995 584.601 73.5995 585.401 73.9995C586.201 76.3995 586.601 77.5995 585.801 78.3995C584.201 79.9995 581.401 78.3995 577.401 74.3995C573.001 69.9995 571.001 63.9995 571.001 55.9995C571.001 47.9995 573.401 41.9995 577.801 37.5995C592.201 22.3995 607.801 22.7995 623.801 38.7995ZM590.601 108.799C611.801 99.5995 626.201 99.1995 634.601 107.199C639.001 111.599 641.401 118.399 641.001 126.799C641.001 135.599 638.601 141.999 633.801 146.799C633.001 147.599 631.801 147.999 629.401 148.399C627.401 148.799 625.801 149.199 625.001 149.999L622.201 152.799L624.601 155.199C627.001 157.599 632.201 154.799 639.801 147.199C645.801 141.199 648.601 133.599 648.201 125.599C647.401 117.199 643.801 109.599 637.401 102.799C631.401 96.7995 624.201 93.9995 615.401 94.3995C606.601 94.7995 599.401 97.1995 594.201 102.799C593.401 103.599 592.201 105.599 590.601 108.799ZM602.601 123.599C606.201 122.799 609.001 123.599 611.001 125.599C612.601 127.199 613.401 129.999 613.401 133.599C613.401 137.199 612.601 140.399 610.201 142.399C607.401 145.199 604.601 146.799 601.001 147.199C597.401 147.999 594.601 147.199 592.601 145.199C590.201 142.799 589.001 139.999 588.601 137.199C588.201 134.399 589.401 131.599 591.401 129.599C595.401 126.799 598.601 124.399 602.601 123.599ZM579.401 149.599C582.601 149.199 585.001 149.999 587.001 151.599C590.201 154.799 590.201 158.799 586.201 162.399C581.401 167.199 577.001 167.199 572.601 163.199C569.001 159.599 568.601 156.799 571.001 153.999C573.801 151.599 576.601 149.999 579.401 149.599Z" fill="url(#paint0_linear_629_68)"/>
<path d="M113.401 37.6004C143.801 62.8004 203.801 90.8004 253.801 90.8004C295.801 90.8004 356.601 74.0004 388.201 58.4004C419.801 42.8004 453.401 19.2004 487.401 19.2004C521.401 19.2004 540.201 29.2004 547.401 34.0004C532.601 67.6004 545.801 106.8 564.601 121.2C571.401 126.4 574.201 123.2 569.801 116.8C558.201 99.6004 543.401 58.0004 557.001 28.0004C506.201 4.80038 454.601 7.20038 393.401 32.4004C332.201 57.6004 285.001 66.0004 248.201 66.0004C211.401 66.0004 155.801 54.8004 116.601 32.4004C112.601 30.0004 108.201 33.6004 113.401 37.6004Z" fill="url(#paint1_linear_629_68)"/>
<path d="M698.2 622.4C673 592 645 532 645 482C645 440 661.8 379.2 677.4 347.6C693 316 716.6 282.4 716.6 248.4C716.6 214.4 706.6 195.6 701.8 188.4C668.2 203.2 629 190 614.6 171.2C609.4 164.4 612.6 162 619 166C636.2 177.6 677.8 192.4 707.8 178.8C731 229.6 728.6 281.6 703 342.4C677.8 403.6 669.4 450.8 669.4 487.6C669.4 524.4 680.6 580 703 619.2C705.8 623.2 701.8 627.6 698.2 622.4Z" fill="url(#paint2_linear_629_68)"/>
<path d="M180.199 35.6003C287.799 9.60033 395.399 83.2003 502.999 52.8003C516.999 48.8003 514.199 42.4003 499.799 46.4003C449.799 60.4003 402.599 41.2003 353.399 31.6003C296.199 20.4003 236.199 13.2003 178.999 28.8003C164.999 32.4003 166.199 39.6003 180.199 35.6003Z" fill="url(#paint3_linear_629_68)"/>
<path d="M700.201 555.2C726.201 448 652.601 340 683.001 232.8C687.001 218.8 693.401 221.6 689.401 236C675.401 286 694.601 333.2 704.201 382.4C715.401 439.2 723.001 499.6 707.401 556.4C703.001 570.8 696.201 569.6 700.201 555.2Z" fill="url(#paint4_linear_629_68)"/>
</g>
<defs>
<filter id="filter0_d_629_68" x="0" y="-107" width="852" height="846.8" filterUnits="userSpaceOnUse" color-interpolation-filters="sRGB">
<feFlood flood-opacity="0" result="BackgroundImageFix"/>
<feColorMatrix in="SourceAlpha" type="matrix" values="0 0 0 0 0 0 0 0 0 0 0 0 0 0 0 0 0 0 127 0" result="hardAlpha"/>
<feOffset dy="4"/>
<feGaussianBlur stdDeviation="55.5"/>
<feColorMatrix type="matrix" values="0 0 0 0 1 0 0 0 0 0.839216 0 0 0 0 0.396078 0 0 0 0.5 0"/>
<feBlend mode="normal" in2="BackgroundImageFix" result="effect1_dropShadow_629_68"/>
<feBlend mode="normal" in="SourceGraphic" in2="effect1_dropShadow_629_68" result="shape"/>
</filter>
<linearGradient id="paint0_linear_629_68" x1="655.795" y1="0.136719" x2="655.795" y2="169.649" gradientUnits="userSpaceOnUse">
<stop stop-color="#FF00EC"/>
<stop offset="1" stop-color="white"/>
</linearGradient>
<linearGradient id="paint1_linear_629_68" x1="341.474" y1="11.9609" x2="341.474" y2="123.797" gradientUnits="userSpaceOnUse">
<stop stop-color="#AF00EC"/>
<stop offset="1" stop-color="white"/>
</linearGradient>
<linearGradient id="paint2_linear_629_68" x1="667.902" y1="164.059" x2="667.902" y2="624.771" gradientUnits="userSpaceOnUse">
<stop stop-color="#FF00EC"/>
<stop offset="1" stop-color="white"/>
</linearGradient>
<linearGradient id="paint3_linear_629_68" x1="340.624" y1="19.8145" x2="340.624" y2="60.2971" gradientUnits="userSpaceOnUse">
<stop stop-color="#FF00EC"/>
<stop offset="1" stop-color="white"/>
</linearGradient>
<linearGradient id="paint4_linear_629_68" x1="695.872" y1="223.632" x2="695.872" y2="566.619" gradientUnits="userSpaceOnUse">
<stop stop-color="#AF00EC"/>
<stop offset="1" stop-color="white"/>
</linearGradient>
<clipPath id="clip0_629_68">
<rect width="630" height="624.8" fill="white" transform="translate(111)"/>
</clipPath>
</defs>
</svg>
